<?xml version="1.0" standalone="no"?>
<!DOCTYPE svg PUBLIC "-//W3C//DTD SVG 20010904//EN"
 "http://www.w3.org/TR/2001/REC-SVG-20010904/DTD/svg10.dtd">
<svg version="1.0" xmlns="http://www.w3.org/2000/svg"
 width="128.000000pt" height="128.000000pt" viewBox="0 0 128.000000 128.000000"
 preserveAspectRatio="xMidYMid meet">
<metadata>
Created by potrace 1.14, written by Peter Selinger 2001-2017
</metadata>
<g transform="translate(0.000000,128.000000) scale(0.100000,-0.100000)"
fill="#000000" stroke="none">
<path d="M404 833 c-68 -33 -82 -116 -29 -169 6 -7 39 -26 73 -43 34 -17 66
-40 72 -50 42 -80 -48 -134 -143 -85 -26 14 -28 13 -36 -8 -12 -31 -9 -34 43
-47 123 -31 209 15 209 112 0 52 -27 85 -106 127 -46 24 -69 43 -76 62 -19 55
38 88 110 63 33 -12 39 -12 54 4 15 17 13 19 -25 35 -50 20 -105 20 -146 -1z"/>
<path d="M740 827 c-127 -67 -141 -284 -24 -373 28 -22 48 -28 95 -30 88 -4
159 24 140 55 -7 11 -15 11 -44 2 -85 -28 -149 -10 -187 51 -30 49 -23 162 12
216 39 59 99 73 168 39 26 -14 30 -13 45 3 16 18 15 20 -24 39 -55 28 -126 28
-181 -2z"/>
</g>
</svg>
